<?xml version="1.0" encoding="UTF-8" standalone="no"?>
<svg width="60px" height="60px" viewBox="0 0 60 60" version="1.1" xmlns="http://www.w3.org/2000/svg" xmlns:xlink="http://www.w3.org/1999/xlink">
    <!-- Generator: Sketch 3.6.1 (26313) - http://www.bohemiancoding.com/sketch -->
    <title>contetn</title>
    <desc>Created with Sketch.</desc>
    <defs>
        <path d="M14.1421492,30.7092984 L46.0482236,30.7092984 L46.0482236,32.501149 L14.1421492,32.501149 L14.1421492,30.7092984 Z M14.0440746,26.6352237 L45.9501489,26.6352237 L45.9501489,28.4270744 L14.0440746,28.4270744 L14.0440746,26.6352237 Z M14.1421492,47.7119995 L45.7539996,47.7119995 L45.7539996,49.5038502 L14.1421492,49.5038502 L14.1421492,47.7119995 Z M14.1421492,39.4591489 L45.7539996,39.4591489 L45.7539996,41.2509996 L14.1421492,41.2509996 L14.1421492,39.4591489 Z M14.0440746,43.5332236 L45.6559249,43.5332236 L45.6559249,45.3250742 L14.0440746,45.3250742 L14.0440746,43.5332236 Z M14.0440746,35.2869996 L45.7539996,35.2869996 L45.7539996,37.0788503 L14.0440746,37.0788503 L14.0440746,35.2869996 Z M30.5431491,22.4630744 L45.7539996,22.4630744 L45.7539996,24.2549251 L30.5431491,24.2549251 L30.5431491,22.4630744 Z M30.5431491,14.2102239 L45.7539996,14.2102239 L45.7539996,16.0020745 L30.5431491,16.0020745 L30.5431491,14.2102239 Z M30.5431491,18.3889998 L45.7539996,18.3889998 L45.7539996,20.1808505 L30.5431491,20.1808505 L30.5431491,18.3889998 Z M30.5431491,10.1361492 L45.7539996,10.1361492 L45.7539996,11.9279999 L30.5431491,11.9279999 L30.5431491,10.1361492 Z M54.0068502,58.6459994 L54.0068502,57.6519994 L6.88992531,57.6519994 L6.88992531,1.88329865 L53.1109248,1.88329865 L53.1109248,58.6459994 L54.0068502,58.6459994 L54.0068502,57.6519994 L54.0068502,58.6459994 L55.0008502,58.6459994 L55.0008502,0 L5,0 L5,59.6399994 L55.0008502,59.6399994 L55.0008502,58.6459994 L54.0068502,58.6459994 Z M16.1301492,21.4690744 C17.7205492,21.4690744 19.0140745,20.1742238 19.0140745,18.5851491 C19.0140745,17.2902985 18.3209252,16.1982238 16.9279999,15.7012238 C17.1241492,13.5170745 17.6211492,12.2222239 18.8179252,11.2282239 L18.8179252,10.3322986 C14.7438506,11.4256985 12.5530746,13.9106985 12.5530746,17.3896985 C12.6511493,19.7752985 14.1421492,21.4690744 16.1301492,21.4690744 Z M24.8799998,21.4690744 C26.4690744,21.4690744 27.7639251,20.1742238 27.7639251,18.5851491 C27.7639251,17.2902985 27.0694504,16.1982238 25.6778505,15.7012238 C25.8739998,13.5170745 26.3709998,12.2222239 27.5664504,11.2282239 L27.5664504,10.3322986 C23.4923758,11.4256985 21.3029252,13.9106985 21.3029252,17.3896985 C21.4009998,19.7752985 22.7939252,21.4690744 24.8799998,21.4690744 Z" id="path-1"></path>
    </defs>
    <g id="Services" stroke="none" stroke-width="1" fill="none" fill-rule="evenodd">
        <g transform="translate(-681.000000, -554.000000)" id="Quote-Modal">
            <g>
                <g id="Group-43" transform="translate(425.000000, 114.000000)">
                    <g id="Group-38" transform="translate(227.000000, 437.000000)">
                        <g id="Group-36" transform="translate(0.000000, 3.000000)">
                            <g id="Group-70" transform="translate(29.000000, 0.000000)">
                                <g id="Fill-1">
                                    <use fill="none" xlink:href="#path-1"></use>
                                    <use fill="#B0B5BB" fill-rule="evenodd" xlink:href="#path-1"></use>
                                </g>
                            </g>
                        </g>
                    </g>
                </g>
            </g>
        </g>
    </g>
</svg>