<?xml version="1.0" encoding="UTF-8" standalone="no"?>
<svg width="360px" height="93px" viewBox="0 0 360 93" version="1.1" xmlns="http://www.w3.org/2000/svg" xmlns:xlink="http://www.w3.org/1999/xlink" xmlns:sketch="http://www.bohemiancoding.com/sketch/ns">
    <!-- Generator: Sketch 3.5.2 (25235) - http://www.bohemiancoding.com/sketch -->
    <title>logo-footer</title>
    <desc>Created with Sketch.</desc>
    <defs>
        <path d="M41.3856769,21.0016868 C38.478869,21.0016868 28.486717,21.0016868 21.0016868,28.9590733 L21.0016868,23.6541489 L21.0016868,0 L0,0 L0,93.6718832 L20.1296444,93.6718832 L20.1296444,86.186853 C23.0364523,91.2374316 30.6304878,96.0699997 40.5136345,96.0699997 C58.3541677,96.0699997 75.9403553,83.4253855 75.9403553,58.0998221 C75.9403553,31.5025302 56.0650566,21.0016868 41.3856769,21.0016868 Z M81.2452796,0 L102.246966,0 L102.246966,93.6718832 L81.2452796,93.6718832 L81.2452796,0 Z M305.142155,70.9987819 C301.835661,74.3052759 297.184768,76.3037063 292.097855,76.3037063 C282.214708,76.3037063 274.511667,69.0730217 274.511667,58.3178326 L274.511667,58.2088273 C274.511667,50.1061004 280.216277,40.6226398 292.3522,40.6226398 C297.293774,40.6226398 301.726656,42.4030596 304.887809,45.5642132 C308.048963,48.6163614 310.083728,52.903903 310.083728,57.9544817 C310.338074,63.1504007 308.448649,67.7286231 305.142155,70.9987819 Z M127.71787,49.8517548 C128.226562,46.5452608 132.514103,38.6968796 143.414633,38.6968796 C154.315162,38.6968796 158.602704,46.5452608 159.111395,49.8517548 L127.71787,49.8517548 Z M54.9386685,58.463173 C54.9386685,67.692288 48.10767,76.4490467 37.352481,76.4490467 C26.8516376,76.4490467 20.2749848,68.0919741 20.2749848,58.3541677 C20.2749848,49.6337442 26.5972919,40.6226398 37.7521671,40.6226398 C48.1440051,40.6226398 54.9750036,49.3430634 54.9750036,58.3541677 L54.9750036,58.463173 L54.9386685,58.463173 Z M143.269292,21.0016868 C121.867919,21.0016868 106.425503,39.0965657 106.425503,58.7175187 C106.425503,79.6102002 123.502999,95.9246593 143.632643,95.9246593 C150.863328,95.9246593 157.803332,93.7808885 163.616947,89.6023522 C169.575903,85.5691563 174.517477,79.4648598 177.932976,71.6164786 L156.422598,71.6164786 C153.879141,75.2863235 150.354636,78.1931314 143.632643,78.1931314 C135.420911,78.1931314 128.335567,73.251558 127.427189,65.8028629 L179.713396,65.8028629 C181.348475,52.903903 178.696013,41.6400226 169.830249,32.1202268 C163.289931,25.1802231 154.024481,21.0016868 143.269292,21.0016868 Z M223.388184,21.0016868 C210.852575,21.0016868 206.419693,27.4693343 204.021577,30.8848335 L204.021577,23.3998033 L184.400623,23.3998033 L184.400623,93.6355481 L205.40231,93.6355481 L205.40231,55.4473599 C205.40231,48.2166753 207.03739,40.7679802 217.429228,40.7679802 C226.803683,40.7679802 228.438763,47.5989787 228.438763,55.3383546 L228.438763,93.6718832 L249.440449,93.6718832 L249.440449,49.7427495 C249.476784,40.2592888 247.078668,21.0016868 223.388184,21.0016868 Z M308.95734,21.7647238 L308.95734,29.3587594 C306.668229,27.0696482 300.745608,21.0016868 288.319004,21.0016868 C270.478471,21.0016868 253.50998,34.5546784 253.50998,58.3541677 C253.50998,79.5011949 267.426323,95.9609944 288.682355,95.9609944 C302.853044,95.9609944 307.903622,88.9846555 309.938388,86.0778477 L309.938388,93.6718832 L329.922692,93.6718832 L329.922692,0 L308.921005,0 L308.921005,21.7647238 L308.95734,21.7647238 Z M338.752121,72.3068455 L360.008153,72.3068455 L360.008153,93.5628779 L338.752121,93.5628779 L338.752121,72.3068455 Z" id="path-1"></path>
    </defs>
    <g id="Home" stroke="none" stroke-width="1" fill="none" fill-rule="evenodd" sketch:type="MSPage">
        <g id="Home-Desktop" sketch:type="MSArtboardGroup" transform="translate(-1010.000000, -3582.000000)">
            <g id="Footer" sketch:type="MSLayerGroup" transform="translate(0.000000, 3319.000000)">
                <g id="Group-4" transform="translate(1010.000000, 263.000000)">
                    <g id="logo-footer">
                        <use fill="none" sketch:type="MSShapeGroup" xlink:href="#path-1"></use>
                        <use fill="#202228" fill-rule="evenodd" xlink:href="#path-1"></use>
                    </g>
                </g>
            </g>
        </g>
    </g>
</svg>