<?xml version="1.0" encoding="UTF-8" standalone="no"?>
<svg width="80px" height="60px" viewBox="0 0 80 60" version="1.1" xmlns="http://www.w3.org/2000/svg" xmlns:xlink="http://www.w3.org/1999/xlink">
    <!-- Generator: Sketch 3.6.1 (26313) - http://www.bohemiancoding.com/sketch -->
    <title>ui</title>
    <desc>Created with Sketch.</desc>
    <defs>
        <path d="M0,0 L0,59.2105263 L78.9473684,59.2105263 L78.9473684,0 L0,0 Z M1.57894737,1.57894737 L77.3684211,1.57894737 L77.3684211,8.28947368 L1.57894737,8.28947368 L1.57894737,1.57894737 Z M77.3684211,57.6315789 L1.57894737,57.6315789 L1.57894737,9.86842105 L77.3684211,9.86842105 L77.3684211,57.6315789 Z M31.5789474,19.7368421 L9.86842105,19.7368421 L9.86842105,33.5526316 L31.5789474,33.5526316 L31.5789474,19.7368421 Z M30,31.9736842 L11.4473684,31.9736842 L11.4473684,21.3157895 L30,21.3157895 L30,31.9736842 Z M17.0884211,24.1284211 C17.0884211,26.2378947 13.9231579,26.2378947 13.9231579,24.1284211 C13.9231579,22.0189474 17.0884211,22.0189474 17.0884211,24.1284211 M21.7842105,30.9663158 L27.6315789,30.9663158 L23.1663158,26.2052632 C22.9115789,25.9294737 22.4757895,25.9294737 22.2157895,26.1968421 L19.2473684,29.2431579 C19.0252632,29.4736842 18.6673684,29.5063158 18.4042105,29.3252632 L16.9736842,28.3473684 C16.7105263,28.1705263 16.3610526,28.2031579 16.1389474,28.4252632 L13.6021053,30.9621053 L21.7842105,30.9621053 L21.7842105,30.9663158 Z M35.5263158,25.6578947 L69.0789474,25.6578947 L69.0789474,27.2368421 L35.5263158,27.2368421 L35.5263158,25.6578947 Z M35.5263158,29.6052632 L69.0789474,29.6052632 L69.0789474,31.1842105 L35.5263158,31.1842105 L35.5263158,29.6052632 Z M35.5263158,21.7105263 L51.3157895,21.7105263 L51.3157895,23.2894737 L35.5263158,23.2894737 L35.5263158,21.7105263 Z M47.3684211,53.2894737 L69.0789474,53.2894737 L69.0789474,39.4736842 L47.3684211,39.4736842 L47.3684211,53.2894737 Z M48.9473684,41.0526316 L67.5,41.0526316 L67.5,51.7105263 L48.9473684,51.7105263 L48.9473684,41.0526316 Z M54.8063158,43.8652632 C54.8063158,45.9747368 51.6442105,45.9747368 51.6442105,43.8652632 C51.6442105,41.7557895 54.8063158,41.7557895 54.8063158,43.8652632 M59.8852632,46.0031579 L57.0063158,48.9557895 C56.7884211,49.1778947 56.4473684,49.2105263 56.1926316,49.0378947 L54.8021053,48.0915789 C54.5473684,47.9189474 54.2105263,47.9526316 53.9926316,48.1663158 L51.5336842,50.6252632 L65.1315789,50.6252632 L60.8063158,46.0115789 C60.5589474,45.7484211 60.14,45.7442105 59.8852632,46.0031579 L59.8852632,46.0031579 Z M9.86842105,45.3947368 L43.4210526,45.3947368 L43.4210526,46.9736842 L9.86842105,46.9736842 L9.86842105,45.3947368 Z M9.86842105,49.3421053 L43.4210526,49.3421053 L43.4210526,50.9210526 L9.86842105,50.9210526 L9.86842105,49.3421053 Z M9.86842105,41.4473684 L25.6578947,41.4473684 L25.6578947,43.0263158 L9.86842105,43.0263158 L9.86842105,41.4473684 Z M9.86842105,4.14421053 L37.5,4.14421053 L37.5,5.72315789 L9.86842105,5.72315789 L9.86842105,4.14421053 Z" id="path-1"></path>
    </defs>
    <g id="Services" stroke="none" stroke-width="1" fill="none" fill-rule="evenodd">
        <g transform="translate(-672.000000, -687.000000)" id="Quote-Modal">
            <g>
                <g id="Group-43" transform="translate(425.000000, 114.000000)">
                    <g id="Group-38" transform="translate(227.000000, 437.000000)">
                        <g id="Group-35" transform="translate(20.000000, 136.000000)">
                            <g id="Group-72">
                                <g id="Fill-1">
                                    <use fill="none" xlink:href="#path-1"></use>
                                    <use fill="#B0B5BB" fill-rule="evenodd" xlink:href="#path-1"></use>
                                </g>
                            </g>
                        </g>
                    </g>
                </g>
            </g>
        </g>
    </g>
</svg>