<?xml version="1.0" encoding="UTF-8" standalone="no"?>
<svg width="60px" height="60px" viewBox="0 0 60 60" version="1.1" xmlns="http://www.w3.org/2000/svg" xmlns:xlink="http://www.w3.org/1999/xlink">
    <!-- Generator: Sketch 3.6.1 (26313) - http://www.bohemiancoding.com/sketch -->
    <title>ux</title>
    <desc>Created with Sketch.</desc>
    <defs>
        <path d="M54.0872,24.216 L43.3096,24.216 C42.4088,24.216 41.6776,24.9472 41.6776,25.8472 L41.6776,30.3344 L36.3872,30.3344 L36.3872,25.8472 C36.3872,24.9472 35.656,24.216 34.756,24.216 L30.1032,24.216 L30.1032,19.1096 L39.5592,19.1096 C40.528,19.1096 41.3152,18.3224 41.3152,17.3568 L41.3152,4.7536 C41.3152,3.7848 40.528,3 39.5592,3 L18.8496,3 C17.8808,3 17.0968,3.788 17.0968,4.7536 L17.0968,17.3568 C17.0968,18.3256 17.884,19.1096 18.8496,19.1096 L28.3064,19.1096 L28.3064,24.216 L23.9808,24.216 C23.0808,24.216 22.3496,24.9472 22.3496,25.8472 L22.3496,30.3344 L17.0376,30.3344 L17.0376,25.8472 C17.0376,24.9472 16.3064,24.216 15.4064,24.216 L4.6312,24.216 C3.7312,24.216 3,24.9472 3,25.8472 L3,36.6224 C3,37.5224 3.7312,38.2536 4.6312,38.2536 L15.4064,38.2536 C16.3064,38.2536 17.0376,37.5224 17.0376,36.6224 L17.0376,32.1344 L22.3496,32.1344 L22.3496,36.6224 C22.3496,37.5224 23.0808,38.2536 23.9808,38.2536 L28.3064,38.2536 L28.3064,43.2784 L10.2936,43.2784 C9.7968,43.2784 9.3936,43.6816 9.3936,44.1784 L9.3936,49.572 C9.3936,50.0688 9.7968,50.472 10.2936,50.472 C10.7904,50.472 11.1936,50.0688 11.1936,49.572 L11.1936,45.0784 L28.3064,45.0784 L28.3064,55.1968 C28.3064,55.6944 28.7096,56.0976 29.2064,56.0976 C29.7032,56.0976 30.1064,55.6944 30.1064,55.1968 L30.1064,45.0784 L47.1904,45.0784 L47.1904,49.572 C47.1904,50.0688 47.5936,50.472 48.0904,50.472 C48.5872,50.472 48.9904,50.0688 48.9904,49.572 L48.9904,44.1784 C48.9904,43.6816 48.5872,43.2784 48.0904,43.2784 L30.1064,43.2784 L30.1064,38.2536 L34.7592,38.2536 C35.6592,38.2536 36.3904,37.5224 36.3904,36.6224 L36.3904,32.1344 L41.6808,32.1344 L41.6808,36.6224 C41.6808,37.5224 42.412,38.2536 43.312,38.2536 L54.0904,38.2536 C54.9904,38.2536 55.7216,37.5224 55.7216,36.6224 L55.7216,25.8472 C55.7184,24.9472 54.9872,24.216 54.0872,24.216 L54.0872,24.216 Z M15.2376,36.4536 L4.8,36.4536 L4.8,26.016 L15.2376,26.016 L15.2376,36.4536 Z M39.5184,16.4256 L30.9096,11.0536 L39.5184,5.6816 L39.5184,16.4256 Z M37.5312,4.7968 L29.2064,9.9944 L20.8808,4.7968 L37.5312,4.7968 Z M18.8968,5.6816 L27.5096,11.0568 L18.8968,16.4312 L18.8968,5.6816 Z M20.8808,17.3096 L29.2064,12.1128 L37.5312,17.3096 L20.8808,17.3096 Z M34.5904,36.4536 L24.1528,36.4536 L24.1528,26.016 L34.5904,26.016 L34.5904,36.4536 Z M53.9184,36.4536 L43.4808,36.4536 L43.4808,26.016 L53.9184,26.016 L53.9184,36.4536 Z" id="path-1"></path>
    </defs>
    <g id="Services" stroke="none" stroke-width="1" fill="none" fill-rule="evenodd">
        <g transform="translate(-871.000000, -551.000000)" id="Quote-Modal">
            <g>
                <g id="Group-43" transform="translate(425.000000, 114.000000)">
                    <g id="Group-38" transform="translate(227.000000, 437.000000)">
                        <g id="Group-34" transform="translate(219.000000, 0.000000)">
                            <g id="Group-71">
                                <g id="Page-1">
                                    <use fill="none" xlink:href="#path-1"></use>
                                    <use fill="#B0B5BB" fill-rule="evenodd" xlink:href="#path-1"></use>
                                </g>
                            </g>
                        </g>
                    </g>
                </g>
            </g>
        </g>
    </g>
</svg>